# xmcd
#
# Track frame offsets: 
#        150
#        13006
#        25419
#        33676
#        46269
#        57310
#        67762
#        78308
#        87367
#        99770
#        110237
#        121380
#        129224
#        139049
#        151495
#        160783
#        170718
#        183689
#        193465
#        206111
#
# Disc length: 2923 seconds
#
# Revision: 0
# Processed by: cddbd v1.5.1PL0 Copyright (c) Steve Scherf et al.
# Submitted via: ExactAudioCopy v0.95a5
#
DISCID=1a0b6914
DTITLE=Jim Reeves - The Ultimate Collection [CD2)
DYEAR=1996
DGENRE=Country
TTITLE0=Distant Drums
TTITLE1=I Can't Stop Loving You
TTITLE2=From A Jack To A King
TTITLE3=Roses Are Red My Love
TTITLE4=Moonlight And Roses (bring memories of you)
TTITLE5=You're The Only Good Thing (that's ever happened to me)
TTITLE6=Am I That Easy To Forget
TTITLE7=You're Free To Go
TTITLE8=Not Until The Next Time
TTITLE9=Don't Let Me Cross Over
TTITLE10=Anna Marie
TTITLE11=Trying To Forget
TTITLE12=I Won't Come In While He's There
TTITLE13=This World Is Not My Home
TTITLE14=Billy Bayou
TTITLE15=Is It Really Over
TTITLE16=The White Cliffs Of Dover
TTITLE17=Blue Boy
TTITLE18=Golden Memories And Silver Tears
TTITLE19=Danny Boy
EXTD=
EXTT0=
EXTT1=
EXTT2=
EXTT3=
EXTT4=
EXTT5=
EXTT6=
EXTT7=
EXTT8=
EXTT9=
EXTT10=
EXTT11=
EXTT12=
EXTT13=
EXTT14=
EXTT15=
EXTT16=
EXTT17=
EXTT18=
EXTT19=
PLAYORDER=
